# xmcd CD database file
#
# Track frame offsets:
#	150
#	23573
#	60656
#	93933
#	126212
#	153243
#
# Disc length: 2428 seconds
#
# Revision: 2
# Processed by: cddbd v1.5.1PL2 Copyright (c) Steve Scherf et al.
# Submitted via: CDex 1.51
#
DISCID=3e097a06
DTITLE=Johnny Coles - Little Johnny C
DYEAR=1963
DGENRE=Jazz
TTITLE0=Little Johnny C
TTITLE1=Hobo Joe
TTITLE2=Jano
TTITLE3=My Sweet Passion
TTITLE4=Heavy Legs
TTITLE5=So Sweet My Little Girl
EXTD=YEAR: 1963
EXTT0=
EXTT1=
EXTT2=
EXTT3=
EXTT4=
EXTT5=
PLAYORDER=
